<svg xmlns="http://www.w3.org/2000/svg" viewBox="0 0 504.26 125.94"><title>logo_internorm</title><path d="M0,0V125.94H504.26V0Z" style="fill:#e91d24"/><path d="M66.86,34.2V91.67H77.77V34.2Z" style="fill:#fff"/><path d="M66.86,91.67V34.2H77.77V91.67Z" style="fill:none;stroke:#fff;stroke-width:1.1032769680023193px"/><path d="M94,91.67V50.3h9v4.45c3.66-2.54,7.87-5.25,12.72-5.25C124,49.5,128,54.91,128,63.34V91.67h-9.86V64.78c0-5.57-1.75-7.32-5.09-7.32a12.63,12.63,0,0,0-9.23,4.37V91.67" style="fill:#fff"/><path d="M94,91.67V50.3h9v4.45c3.66-2.54,7.87-5.25,12.72-5.25C124,49.5,128,54.91,128,63.34V91.67h-9.86V64.78c0-5.57-1.75-7.32-5.09-7.32a12.63,12.63,0,0,0-9.23,4.37V91.67Z" style="fill:none;stroke:#fff;stroke-width:1.1032769680023193px"/><path d="M144.63,50.28V36.59h9.85V50.28h8.1v8h-8.1v23.4c0,2.23,1.12,2.87,3.58,2.87a21,21,0,0,0,4.52-.8v8.12a63.43,63.43,0,0,1-7.78.64c-7.31,0-10.17-3.66-10.17-9.56V58.24h-5.72v-8" style="fill:#fff"/><path d="M144.63,50.28V36.59h9.85V50.28h8.1v8h-8.1v23.4c0,2.23,1.12,2.87,3.58,2.87a21,21,0,0,0,4.52-.8v8.12a63.43,63.43,0,0,1-7.78.64c-7.31,0-10.17-3.66-10.17-9.56V58.24h-5.72v-8Z" style="fill:none;stroke:#fff;stroke-width:1.1032769680023193px"/><path d="M181.43,65.88c.16-5.74,3.19-9.08,8-9.08s7.81,3.34,8,9.08Zm25,6.7V68.51c0-10-6.05-19.13-16.9-19.05-11.23,0-18,8.37-18,21.52s6.78,21.52,17.53,21.52c8,0,13.55-2.55,17.38-8.44l-7.17-4.47c-2.47,2.87-4.62,4.94-9.25,4.94s-8.45-3.34-8.61-12" style="fill:#fff"/><path d="M181.45,65.89c.15-5.73,3.18-9.07,7.94-9.07s7.79,3.34,8,9.07Z" style="fill:none;stroke:#fff;stroke-width:1.1032769680023193px"/><path d="M206.41,72.57v-4c0-9.95-6-19.1-16.86-19-11.21,0-18,8.35-18,21.48S178.3,92.54,189,92.54c8,0,13.52-2.55,17.33-8.44l-7.16-4.46c-2.46,2.87-4.61,4.94-9.22,4.94s-8.43-3.34-8.58-11.94Z" style="fill:none;stroke:#fff;stroke-width:1.1032769680023193px"/><path d="M218.78,91.67V50.3h9.05v7.07H228c2.38-4.92,5.72-7.71,11.59-7.87V59.93a11.39,11.39,0,0,0-1.75-.08c-4.92,0-9.21,5.65-9.21,6.68V91.67" style="fill:#fff"/><path d="M218.78,91.67V50.3h9.05v7.08H228c2.38-4.93,5.72-7.72,11.59-7.88V59.93a11.39,11.39,0,0,0-1.75-.08c-4.92,0-9.21,5.65-9.21,6.68V91.67Z" style="fill:none;stroke:#fff;stroke-width:1.1032769680023193px"/><path d="M250.74,91.67V50.3h9.06v4.45c3.67-2.54,7.88-5.25,12.73-5.25,8.27,0,12.25,5.41,12.25,13.84V91.67h-9.87V64.78c0-5.57-1.75-7.32-5.09-7.32a12.6,12.6,0,0,0-9.22,4.37V91.67" style="fill:#fff"/><path d="M250.74,91.67V50.3h9.06v4.45c3.67-2.54,7.88-5.25,12.73-5.25,8.27,0,12.25,5.41,12.25,13.84V91.67h-9.87V64.78c0-5.57-1.75-7.32-5.09-7.32a12.6,12.6,0,0,0-9.22,4.37V91.67Z" style="fill:none;stroke:#fff;stroke-width:1.1032769680023193px"/><path d="M322,71c0,9.25-2.63,13.55-8.13,13.55S305.7,80.23,305.7,71s2.63-13.55,8.13-13.55S322,61.74,322,71m-26.14,0c0,13.15,6.77,21.52,18,21.52s18-8.37,18-21.52-6.77-21.52-18-21.52-18,8.37-18,21.52" style="fill:#fff"/><path d="M321.94,71c0,9.23-2.62,13.53-8.11,13.53s-8.11-4.3-8.11-13.53,2.62-13.52,8.11-13.52S321.94,61.75,321.94,71Z" style="fill:none;stroke:#fff;stroke-width:1.1032769680023193px"/><path d="M295.85,71c0,13.13,6.77,21.49,18,21.49s18-8.36,18-21.49-6.85-21.5-18-21.5S295.85,57.85,295.85,71Z" style="fill:none;stroke:#fff;stroke-width:1.1032769680023193px"/><path d="M343,91.67V50.3h9v7.07h.16c2.38-4.92,5.72-7.71,11.6-7.87V59.93a11.39,11.39,0,0,0-1.75-.08c-4.92,0-9.21,5.65-9.21,6.68V91.67" style="fill:#fff"/><path d="M343,91.67V50.3h9v7.08h.16c2.38-4.93,5.72-7.72,11.6-7.88V59.93a11.39,11.39,0,0,0-1.75-.08c-4.92,0-9.21,5.65-9.21,6.68V91.67Z" style="fill:none;stroke:#fff;stroke-width:1.1032769680023193px"/><path d="M375,91.67V50.3h9v4.45c3.74-3.42,6.77-5.25,12.42-5.25a10.89,10.89,0,0,1,10.19,6,18.52,18.52,0,0,1,14.24-6c4.3,0,10.19,2.55,10.19,12.41V91.67h-9.87V62.79c0-3.34-1.35-5.17-4.93-5.33-2.55,0-6,2.3-8.28,4.45V91.67h-9.87V62.79c0-3.34-1.35-5.17-4.94-5.33-2.54,0-6,2.3-8.27,4.45V91.67" style="fill:#fff"/><path d="M375,91.67V50.3h9v4.45c3.74-3.42,6.77-5.25,12.42-5.25a10.89,10.89,0,0,1,10.19,6,18.52,18.52,0,0,1,14.24-6c4.3,0,10.19,2.55,10.19,12.41V91.67h-9.87V62.79c0-3.34-1.35-5.17-4.93-5.33-2.55,0-6,2.31-8.28,4.45V91.67h-9.87V62.79c0-3.34-1.35-5.17-4.94-5.33-2.54,0-6,2.31-8.27,4.45V91.67Z" style="fill:none;stroke:#fff;stroke-width:1.1032769680023193px"/><path d="M432.74,40V38.1H434c.61,0,1.27.11,1.27.93,0,1-.85,1-1.62,1Zm0,.66h1.11l1.58,2.57h.89l-1.61-2.57A1.55,1.55,0,0,0,436,39.07c0-1-.57-1.6-1.87-1.6H432v5.79h.79V40.69Zm1-5.21a4.88,4.88,0,1,0,4.87,4.89h0a4.88,4.88,0,0,0-4.87-4.88m0,9.09a4.22,4.22,0,1,1,4.09-4.35v.14a4.09,4.09,0,0,1-3.95,4.21h-.14" style="fill:#fff"/><path d="M432.74,40V38.14H434c.6,0,1.26.12,1.26.92,0,1-.85,1-1.61,1Z" style="fill:none;stroke:#fff;stroke-miterlimit:3.864000082015991;stroke-width:0.7844592332839966px"/><path d="M432.74,40.68h1.11l1.57,2.57h.89l-1.61-2.57a1.53,1.53,0,0,0,1.33-1.6c0-1-.58-1.6-1.86-1.6H432v5.77h.78V40.68Z" style="fill:none;stroke:#fff;stroke-miterlimit:3.864000082015991;stroke-width:0.7844592332839966px"/><path d="M433.76,35.51a4.85,4.85,0,1,0,4.85,4.85,4.85,4.85,0,0,0-4.85-4.85Z" style="fill:none;stroke:#fff;stroke-miterlimit:3.864000082015991;stroke-width:0.7844592332839966px"/><path d="M433.76,44.55a4.2,4.2,0,1,1,4.06-4.34v.15a4.07,4.07,0,0,1-3.93,4.19Z" style="fill:none;stroke:#fff;stroke-miterlimit:3.864000082015991;stroke-width:0.7844592332839966px"/></svg>