<svg xmlns="http://www.w3.org/2000/svg" viewBox="0 0 255.12 65.2"><title>logo_internorm2</title><polygon points="0 0 0 65.2 255.12 65.2 255.12 0 0 0 0 0" style="fill:#c31924"/><polygon points="36.59 46.89 36.59 17.9 42.15 17.9 42.15 46.89 36.59 46.89 36.59 46.89" style="fill:#fff"/><path d="M228.28,410.89V390h4.59v2.25c1.85-1.29,4-2.65,6.44-2.65,4.19,0,6.2,2.73,6.2,7v14.29h-5V397.32c0-2.81-.89-3.7-2.58-3.7a6.41,6.41,0,0,0-4.67,2.21v15.06Z" transform="translate(-178 -364)" style="fill:#fff"/><path d="M253.88,390V383.1h5V390H263v4h-4.1v11.81c0,1.13.56,1.45,1.81,1.45a10.38,10.38,0,0,0,2.29-.41V411a32.69,32.69,0,0,1-3.94.32c-3.71,0-5.16-1.85-5.16-4.82V394H251v-4Z" transform="translate(-178 -364)" style="fill:#fff"/><path d="M272.48,397.88c.08-2.89,1.61-4.58,4-4.58s3.94,1.69,4,4.58Zm12.64,3.37V399.2c0-5-3.06-9.63-8.53-9.59-5.68,0-9.1,4.21-9.1,10.84s3.42,10.84,8.86,10.84c4,0,6.84-1.28,8.77-4.25l-3.62-2.25c-1.25,1.44-2.33,2.49-4.67,2.49s-4.27-1.69-4.35-6Z" transform="translate(-178 -364)" style="fill:#fff"/><path d="M272.48,397.88c.08-2.89,1.61-4.58,4-4.58s3.94,1.69,4,4.58Zm12.64,3.37V399.2c0-5-3.06-9.63-8.53-9.59-5.68,0-9.1,4.21-9.1,10.84s3.42,10.84,8.86,10.84c4,0,6.84-1.28,8.77-4.25l-3.62-2.25c-1.25,1.44-2.33,2.49-4.67,2.49s-4.27-1.69-4.35-6Z" transform="translate(-178 -364)" style="fill:#fff"/><path d="M291.32,410.89V390h4.59v3.57H296c1.21-2.49,2.9-3.89,5.88-4v5.26a5.65,5.65,0,0,0-.88,0c-2.5,0-4.67,2.85-4.67,3.37v12.69Z" transform="translate(-178 -364)" style="fill:#fff"/><path d="M307.47,410.89V390h4.59v2.25c1.85-1.29,4-2.65,6.44-2.65,4.19,0,6.2,2.73,6.2,7v14.29h-5V397.32c0-2.81-.89-3.7-2.58-3.7a6.41,6.41,0,0,0-4.67,2.21v15.06Z" transform="translate(-178 -364)" style="fill:#fff"/><path d="M343.46,400.45c0,4.66-1.33,6.83-4.11,6.83s-4.1-2.17-4.1-6.83,1.33-6.83,4.1-6.83,4.11,2.17,4.11,6.83Zm-13.2,0c0,6.63,3.42,10.84,9.09,10.84s9.1-4.21,9.1-10.84-3.42-10.84-9.1-10.84-9.09,4.21-9.09,10.84Z" transform="translate(-178 -364)" style="fill:#fff"/><path d="M343.46,400.45c0,4.66-1.33,6.83-4.11,6.83s-4.1-2.17-4.1-6.83,1.33-6.83,4.1-6.83,4.11,2.17,4.11,6.83Zm-13.2,0c0,6.63,3.42,10.84,9.09,10.84s9.1-4.21,9.1-10.84-3.42-10.84-9.1-10.84-9.09,4.21-9.09,10.84Z" transform="translate(-178 -364)" style="fill:#fff"/><path d="M354.09,410.89V390h4.59v3.57h.08c1.21-2.49,2.9-3.89,5.88-4v5.26a5.79,5.79,0,0,0-.89,0c-2.49,0-4.67,2.85-4.67,3.37v12.69Z" transform="translate(-178 -364)" style="fill:#fff"/><path d="M370.23,410.89V390h4.55v2.25a8.22,8.22,0,0,1,6.28-2.65,5.5,5.5,0,0,1,5.16,3.05,9.35,9.35,0,0,1,7.2-3.05c2.18,0,5.16,1.28,5.16,6.26v15h-5V396.31c0-1.68-.68-2.61-2.49-2.69-1.29,0-3,1.17-4.19,2.25v15h-5V396.31c0-1.68-.69-2.61-2.5-2.69-1.29,0-3,1.17-4.18,2.25v15Z" transform="translate(-178 -364)" style="fill:#fff"/><path d="M399.41,384.86v-1h.64c.31,0,.64.05.64.47s-.43.49-.82.49Zm0,.33H400l.79,1.29h.46l-.82-1.29a.79.79,0,0,0,.67-.82c0-.52-.29-.81-.94-.81H399v2.92h.4v-1.29Zm.52-2.62a2.46,2.46,0,1,0,2.46,2.45,2.46,2.46,0,0,0-2.46-2.45Zm0,4.58A2.13,2.13,0,1,1,402,385a2.06,2.06,0,0,1-2.06,2.13Z" transform="translate(-178 -364)" style="fill:#fff"/></svg>